<?xml version="1.0" encoding="UTF-8"?><svg xmlns="http://www.w3.org/2000/svg" xmlns:xlink="http://www.w3.org/1999/xlink" contentScriptType="text/ecmascript" width="224.87999" zoomAndPan="magnify" contentStyleType="text/css" viewBox="0 0 224.87999 74.999997" height="74.999997" preserveAspectRatio="xMidYMid meet" version="1.0"><defs><clipPath id="clip-0"><path d="M 0 3.15625 L 69 3.15625 L 69 72.117188 L 0 72.117188 Z M 0 3.15625 " clip-rule="nonzero"/></clipPath><clipPath id="clip-1"><path d="M 211 20 L 224.761719 20 L 224.761719 43 L 211 43 Z M 211 20 " clip-rule="nonzero"/></clipPath></defs><g clip-path="url(#clip-0)"><path fill="rgb(7.449341%, 63.919067%, 100%)" d="M 10.964844 3.230469 L 57.570312 3.230469 C 63.621094 3.230469 68.535156 8.15625 68.535156 14.238281 L 68.535156 61.03125 C 68.535156 67.113281 63.625 72.042969 57.570312 72.042969 L 10.964844 72.042969 C 4.910156 72.042969 0 67.113281 0 61.03125 L 0 14.238281 C 0 8.15625 4.910156 3.230469 10.964844 3.230469 Z M 47.855469 17.125 L 53.171875 17.125 C 53.941406 17.125 54.558594 17.746094 54.558594 18.519531 L 54.558594 56.753906 C 54.558594 57.519531 53.941406 58.144531 53.171875 58.144531 L 15.359375 58.144531 C 14.59375 58.144531 13.972656 57.519531 13.972656 56.753906 L 13.972656 39.367188 C 13.972656 38.597656 14.59375 37.972656 15.359375 37.972656 L 20.675781 37.972656 C 21.4375 37.972656 22.0625 38.597656 22.0625 39.367188 L 22.0625 49.324219 C 22.0625 49.710938 22.371094 50.019531 22.757812 50.019531 L 29.597656 50.019531 C 29.980469 50.019531 30.292969 49.710938 30.292969 49.324219 L 30.292969 28.9375 C 30.292969 28.171875 30.910156 27.546875 31.675781 27.546875 L 36.992188 27.546875 C 37.757812 27.546875 38.378906 28.167969 38.378906 28.9375 L 38.378906 49.324219 C 38.378906 49.710938 38.691406 50.019531 39.074219 50.019531 L 45.773438 50.019531 C 46.160156 50.019531 46.46875 49.710938 46.46875 49.324219 L 46.46875 18.515625 C 46.46875 17.746094 47.089844 17.125 47.855469 17.125 Z M 47.855469 17.125 " fill-opacity="1" fill-rule="evenodd"/></g><path fill="rgb(7.449341%, 63.919067%, 100%)" d="M 96.0625 50.996094 C 97.101562 50.996094 97.921875 51.300781 98.527344 51.910156 C 99.136719 52.507812 99.4375 53.410156 99.4375 54.617188 L 99.4375 59.355469 L 97.511719 59.355469 L 97.511719 54.867188 C 97.511719 54.144531 97.351562 53.601562 97.035156 53.238281 C 96.714844 52.867188 96.257812 52.683594 95.660156 52.683594 C 95.011719 52.683594 94.496094 52.898438 94.101562 53.332031 C 93.710938 53.757812 93.515625 54.367188 93.515625 55.160156 L 93.515625 59.355469 L 91.589844 59.355469 L 91.589844 54.867188 C 91.589844 54.144531 91.429688 53.601562 91.113281 53.238281 C 90.792969 52.867188 90.335938 52.683594 89.738281 52.683594 C 89.082031 52.683594 88.558594 52.894531 88.167969 53.316406 C 87.785156 53.742188 87.597656 54.355469 87.597656 55.160156 L 87.597656 59.355469 L 85.667969 59.355469 L 85.667969 51.089844 L 87.503906 51.089844 L 87.503906 52.140625 C 87.8125 51.769531 88.199219 51.484375 88.660156 51.289062 C 89.121094 51.09375 89.636719 50.996094 90.203125 50.996094 C 90.820312 50.996094 91.363281 51.113281 91.835938 51.351562 C 92.320312 51.578125 92.699219 51.917969 92.976562 52.375 C 93.316406 51.941406 93.753906 51.605469 94.289062 51.367188 C 94.824219 51.117188 95.414062 50.996094 96.0625 50.996094 Z M 96.0625 50.996094 " fill-opacity="1" fill-rule="nonzero"/><path fill="rgb(7.449341%, 63.919067%, 100%)" d="M 102.210938 51.089844 L 104.136719 51.089844 L 104.136719 59.355469 L 102.210938 59.355469 Z M 103.183594 49.726562 C 102.832031 49.726562 102.539062 49.617188 102.304688 49.398438 C 102.066406 49.171875 101.949219 48.894531 101.949219 48.5625 C 101.949219 48.234375 102.066406 47.960938 102.304688 47.742188 C 102.539062 47.515625 102.832031 47.402344 103.183594 47.402344 C 103.53125 47.402344 103.824219 47.511719 104.0625 47.726562 C 104.296875 47.933594 104.414062 48.199219 104.414062 48.519531 C 104.414062 48.859375 104.296875 49.148438 104.0625 49.386719 C 103.835938 49.613281 103.542969 49.726562 103.183594 49.726562 Z M 103.183594 49.726562 " fill-opacity="1" fill-rule="nonzero"/><path fill="rgb(7.449341%, 63.919067%, 100%)" d="M 115.042969 47.867188 L 115.042969 59.355469 L 113.191406 59.355469 L 113.191406 58.289062 C 112.871094 58.679688 112.476562 58.972656 112.003906 59.171875 C 111.539062 59.367188 111.027344 59.464844 110.460938 59.464844 C 109.667969 59.464844 108.957031 59.289062 108.316406 58.9375 C 107.691406 58.585938 107.199219 58.089844 106.835938 57.453125 C 106.476562 56.800781 106.296875 56.058594 106.296875 55.222656 C 106.296875 54.386719 106.476562 53.648438 106.835938 53.007812 C 107.199219 52.367188 107.691406 51.871094 108.316406 51.523438 C 108.957031 51.171875 109.667969 50.996094 110.460938 50.996094 C 111.007812 50.996094 111.503906 51.089844 111.957031 51.273438 C 112.410156 51.460938 112.796875 51.738281 113.113281 52.109375 L 113.113281 47.867188 Z M 110.691406 57.808594 C 111.15625 57.808594 111.570312 57.703125 111.941406 57.5 C 112.3125 57.28125 112.605469 56.976562 112.820312 56.585938 C 113.035156 56.191406 113.144531 55.738281 113.144531 55.222656 C 113.144531 54.707031 113.035156 54.25 112.820312 53.859375 C 112.605469 53.46875 112.3125 53.167969 111.941406 52.960938 C 111.570312 52.746094 111.15625 52.636719 110.691406 52.636719 C 110.230469 52.636719 109.8125 52.746094 109.445312 52.960938 C 109.074219 53.167969 108.78125 53.46875 108.566406 53.859375 C 108.347656 54.25 108.242188 54.707031 108.242188 55.222656 C 108.242188 55.738281 108.347656 56.191406 108.566406 56.585938 C 108.78125 56.976562 109.074219 57.28125 109.445312 57.5 C 109.8125 57.703125 110.230469 57.808594 110.691406 57.808594 Z M 110.691406 57.808594 " fill-opacity="1" fill-rule="nonzero"/><path fill="rgb(7.449341%, 63.919067%, 100%)" d="M 117.871094 51.089844 L 119.800781 51.089844 L 119.800781 59.355469 L 117.871094 59.355469 Z M 118.84375 49.726562 C 118.492188 49.726562 118.199219 49.617188 117.964844 49.398438 C 117.726562 49.171875 117.609375 48.894531 117.609375 48.5625 C 117.609375 48.234375 117.726562 47.960938 117.964844 47.742188 C 118.199219 47.515625 118.492188 47.402344 118.84375 47.402344 C 119.191406 47.402344 119.484375 47.511719 119.722656 47.726562 C 119.957031 47.933594 120.078125 48.199219 120.078125 48.519531 C 120.078125 48.859375 119.957031 49.148438 119.722656 49.386719 C 119.496094 49.613281 119.203125 49.726562 118.84375 49.726562 Z M 118.84375 49.726562 " fill-opacity="1" fill-rule="nonzero"/><path fill="rgb(7.449341%, 63.919067%, 100%)" d="M 125.78125 50.996094 C 126.996094 50.996094 127.921875 51.289062 128.558594 51.878906 C 129.207031 52.457031 129.53125 53.332031 129.53125 54.511719 L 129.53125 59.355469 L 127.710938 59.355469 L 127.710938 58.351562 C 127.472656 58.710938 127.132812 58.988281 126.691406 59.1875 C 126.261719 59.371094 125.738281 59.464844 125.121094 59.464844 C 124.503906 59.464844 123.964844 59.359375 123.5 59.15625 C 123.039062 58.9375 122.679688 58.644531 122.421875 58.273438 C 122.175781 57.890625 122.050781 57.460938 122.050781 56.988281 C 122.050781 56.242188 122.324219 55.652344 122.867188 55.207031 C 123.421875 54.753906 124.292969 54.523438 125.472656 54.523438 L 127.601562 54.523438 L 127.601562 54.402344 C 127.601562 53.824219 127.425781 53.378906 127.078125 53.070312 C 126.738281 52.761719 126.230469 52.605469 125.550781 52.605469 C 125.089844 52.605469 124.632812 52.675781 124.179688 52.820312 C 123.738281 52.964844 123.363281 53.167969 123.054688 53.425781 L 122.296875 52.015625 C 122.730469 51.6875 123.25 51.433594 123.855469 51.257812 C 124.460938 51.082031 125.105469 50.996094 125.78125 50.996094 Z M 125.519531 58.054688 C 126.003906 58.054688 126.429688 57.945312 126.800781 57.730469 C 127.179688 57.503906 127.449219 57.183594 127.601562 56.769531 L 127.601562 55.808594 L 125.613281 55.808594 C 124.503906 55.808594 123.949219 56.175781 123.949219 56.910156 C 123.949219 57.261719 124.085938 57.539062 124.363281 57.746094 C 124.640625 57.953125 125.027344 58.054688 125.519531 58.054688 Z M 125.519531 58.054688 " fill-opacity="1" fill-rule="nonzero"/><path fill="rgb(7.449341%, 63.919067%, 100%)" d="M 136.882812 51.089844 L 138.808594 51.089844 L 138.808594 59.355469 L 136.882812 59.355469 Z M 137.855469 49.726562 C 137.503906 49.726562 137.210938 49.617188 136.976562 49.398438 C 136.738281 49.171875 136.621094 48.894531 136.621094 48.5625 C 136.621094 48.234375 136.738281 47.960938 136.976562 47.742188 C 137.210938 47.515625 137.503906 47.402344 137.855469 47.402344 C 138.203125 47.402344 138.496094 47.511719 138.734375 47.726562 C 138.96875 47.933594 139.085938 48.199219 139.085938 48.519531 C 139.085938 48.859375 138.96875 49.148438 138.734375 49.386719 C 138.507812 49.613281 138.214844 49.726562 137.855469 49.726562 Z M 137.855469 49.726562 " fill-opacity="1" fill-rule="nonzero"/><path fill="rgb(7.449341%, 63.919067%, 100%)" d="M 146.320312 50.996094 C 147.359375 50.996094 148.191406 51.300781 148.816406 51.910156 C 149.445312 52.519531 149.757812 53.421875 149.757812 54.617188 L 149.757812 59.355469 L 147.832031 59.355469 L 147.832031 54.867188 C 147.832031 54.144531 147.660156 53.601562 147.324219 53.238281 C 146.984375 52.867188 146.5 52.683594 145.871094 52.683594 C 145.164062 52.683594 144.601562 52.898438 144.191406 53.332031 C 143.78125 53.757812 143.574219 54.371094 143.574219 55.175781 L 143.574219 59.355469 L 141.648438 59.355469 L 141.648438 51.089844 L 143.484375 51.089844 L 143.484375 52.15625 C 143.800781 51.773438 144.203125 51.484375 144.6875 51.289062 C 145.167969 51.09375 145.714844 50.996094 146.320312 50.996094 Z M 146.320312 50.996094 " fill-opacity="1" fill-rule="nonzero"/><path fill="rgb(7.449341%, 63.919067%, 100%)" d="M 160.652344 47.867188 L 160.652344 59.355469 L 158.800781 59.355469 L 158.800781 58.289062 C 158.484375 58.679688 158.089844 58.972656 157.613281 59.171875 C 157.152344 59.367188 156.636719 59.464844 156.074219 59.464844 C 155.28125 59.464844 154.566406 59.289062 153.929688 58.9375 C 153.300781 58.585938 152.808594 58.089844 152.449219 57.453125 C 152.089844 56.800781 151.910156 56.058594 151.910156 55.222656 C 151.910156 54.386719 152.089844 53.648438 152.449219 53.007812 C 152.808594 52.367188 153.300781 51.871094 153.929688 51.523438 C 154.566406 51.171875 155.28125 50.996094 156.074219 50.996094 C 156.617188 50.996094 157.117188 51.089844 157.570312 51.273438 C 158.019531 51.460938 158.40625 51.738281 158.726562 52.109375 L 158.726562 47.867188 Z M 156.304688 57.808594 C 156.765625 57.808594 157.183594 57.703125 157.554688 57.5 C 157.921875 57.28125 158.214844 56.976562 158.433594 56.585938 C 158.648438 56.191406 158.757812 55.738281 158.757812 55.222656 C 158.757812 54.707031 158.648438 54.25 158.433594 53.859375 C 158.214844 53.46875 157.921875 53.167969 157.554688 52.960938 C 157.183594 52.746094 156.765625 52.636719 156.304688 52.636719 C 155.84375 52.636719 155.425781 52.746094 155.054688 52.960938 C 154.683594 53.167969 154.390625 53.46875 154.175781 53.859375 C 153.960938 54.25 153.851562 54.707031 153.851562 55.222656 C 153.851562 55.738281 153.960938 56.191406 154.175781 56.585938 C 154.390625 56.976562 154.683594 57.28125 155.054688 57.5 C 155.425781 57.703125 155.84375 57.808594 156.304688 57.808594 Z M 156.304688 57.808594 " fill-opacity="1" fill-rule="nonzero"/><path fill="rgb(7.449341%, 63.919067%, 100%)" d="M 167.183594 59.464844 C 166.351562 59.464844 165.601562 59.285156 164.933594 58.921875 C 164.265625 58.5625 163.738281 58.0625 163.359375 57.421875 C 162.988281 56.769531 162.804688 56.039062 162.804688 55.222656 C 162.804688 54.40625 162.988281 53.679688 163.359375 53.039062 C 163.738281 52.398438 164.265625 51.898438 164.933594 51.535156 C 165.601562 51.175781 166.351562 50.996094 167.183594 50.996094 C 168.027344 50.996094 168.78125 51.175781 169.449219 51.535156 C 170.117188 51.898438 170.636719 52.398438 171.007812 53.039062 C 171.386719 53.679688 171.578125 54.40625 171.578125 55.222656 C 171.578125 56.039062 171.386719 56.769531 171.007812 57.421875 C 170.636719 58.0625 170.117188 58.5625 169.449219 58.921875 C 168.78125 59.285156 168.027344 59.464844 167.183594 59.464844 Z M 167.183594 57.808594 C 167.894531 57.808594 168.480469 57.570312 168.941406 57.09375 C 169.40625 56.621094 169.636719 55.996094 169.636719 55.222656 C 169.636719 54.449219 169.40625 53.824219 168.941406 53.347656 C 168.480469 52.875 167.894531 52.636719 167.183594 52.636719 C 166.472656 52.636719 165.886719 52.875 165.425781 53.347656 C 164.972656 53.824219 164.746094 54.449219 164.746094 55.222656 C 164.746094 55.996094 164.972656 56.621094 165.425781 57.09375 C 165.886719 57.570312 166.472656 57.808594 167.183594 57.808594 Z M 167.183594 57.808594 " fill-opacity="1" fill-rule="nonzero"/><path fill="rgb(7.449341%, 63.919067%, 100%)" d="M 177.429688 59.464844 C 176.597656 59.464844 175.847656 59.285156 175.179688 58.921875 C 174.511719 58.5625 173.988281 58.0625 173.605469 57.421875 C 173.238281 56.769531 173.050781 56.039062 173.050781 55.222656 C 173.050781 54.40625 173.238281 53.679688 173.605469 53.039062 C 173.988281 52.398438 174.511719 51.898438 175.179688 51.535156 C 175.847656 51.175781 176.597656 50.996094 177.429688 50.996094 C 178.273438 50.996094 179.03125 51.175781 179.699219 51.535156 C 180.367188 51.898438 180.886719 52.398438 181.253906 53.039062 C 181.636719 53.679688 181.824219 54.40625 181.824219 55.222656 C 181.824219 56.039062 181.636719 56.769531 181.253906 57.421875 C 180.886719 58.0625 180.367188 58.5625 179.699219 58.921875 C 179.03125 59.285156 178.273438 59.464844 177.429688 59.464844 Z M 177.429688 57.808594 C 178.140625 57.808594 178.726562 57.570312 179.1875 57.09375 C 179.652344 56.621094 179.882812 55.996094 179.882812 55.222656 C 179.882812 54.449219 179.652344 53.824219 179.1875 53.347656 C 178.726562 52.875 178.140625 52.636719 177.429688 52.636719 C 176.722656 52.636719 176.136719 52.875 175.671875 53.347656 C 175.222656 53.824219 174.996094 54.449219 174.996094 55.222656 C 174.996094 55.996094 175.222656 56.621094 175.671875 57.09375 C 176.136719 57.570312 176.722656 57.808594 177.429688 57.808594 Z M 177.429688 57.808594 " fill-opacity="1" fill-rule="nonzero"/><path fill="rgb(7.449341%, 63.919067%, 100%)" d="M 185.8125 52.296875 C 186.367188 51.429688 187.34375 50.996094 188.742188 50.996094 L 188.742188 52.835938 C 188.578125 52.804688 188.429688 52.792969 188.296875 52.792969 C 187.542969 52.792969 186.957031 53.011719 186.539062 53.457031 C 186.117188 53.890625 185.90625 54.519531 185.90625 55.347656 L 185.90625 59.355469 L 183.976562 59.355469 L 183.976562 51.089844 L 185.8125 51.089844 Z M 185.8125 52.296875 " fill-opacity="1" fill-rule="nonzero"/><path fill="rgb(30.589294%, 32.548523%, 33.329773%)" d="M 197.816406 20.183594 C 201.171875 20.183594 203.75 20.992188 205.550781 22.609375 C 207.347656 24.199219 208.246094 26.613281 208.246094 29.847656 L 208.246094 41.398438 C 208.246094 41.875 207.863281 42.257812 207.390625 42.257812 L 203.226562 42.257812 C 202.75 42.257812 202.367188 41.875 202.367188 41.398438 L 202.367188 39.550781 C 201.1875 41.570312 198.984375 42.582031 195.765625 42.582031 C 194.101562 42.582031 192.652344 42.300781 191.417969 41.734375 C 190.207031 41.167969 189.28125 40.386719 188.636719 39.386719 C 187.992188 38.390625 187.671875 37.257812 187.671875 35.992188 C 187.671875 33.972656 188.421875 32.378906 189.925781 31.222656 C 191.457031 30.0625 193.804688 29.484375 196.972656 29.484375 L 201.535156 29.484375 C 201.773438 29.484375 201.96875 29.289062 201.953125 29.054688 C 201.871094 27.886719 201.460938 26.980469 200.71875 26.328125 C 199.886719 25.574219 198.636719 25.199219 196.972656 25.199219 C 195.820312 25.199219 194.675781 25.386719 193.550781 25.765625 C 192.828125 25.992188 192.175781 26.28125 191.589844 26.628906 C 191.128906 26.902344 190.5 26.769531 190.253906 26.289062 L 188.816406 23.476562 C 188.621094 23.097656 188.734375 22.625 189.101562 22.402344 C 190.144531 21.761719 191.347656 21.253906 192.703125 20.871094 C 194.367188 20.414062 196.074219 20.183594 197.816406 20.183594 Z M 197.335938 38.335938 C 198.410156 38.335938 199.363281 38.09375 200.195312 37.609375 C 201.027344 37.097656 201.617188 36.355469 201.964844 35.386719 L 201.964844 34.023438 C 201.964844 33.546875 201.582031 33.164062 201.109375 33.164062 L 197.65625 33.164062 C 195.082031 33.164062 193.792969 34.011719 193.792969 35.710938 C 193.792969 36.519531 194.101562 37.164062 194.71875 37.648438 C 195.363281 38.109375 196.234375 38.335938 197.335938 38.335938 Z M 197.335938 38.335938 " fill-opacity="1" fill-rule="nonzero"/><path fill="rgb(30.589294%, 32.548523%, 33.329773%)" d="M 178.632812 13.121094 C 178.632812 12.644531 179.015625 12.261719 179.488281 12.261719 L 184.058594 12.261719 C 184.53125 12.261719 184.914062 12.644531 184.914062 13.121094 L 184.914062 41.398438 C 184.914062 41.875 184.53125 42.257812 184.058594 42.257812 L 179.488281 42.257812 C 179.015625 42.257812 178.632812 41.875 178.632812 41.398438 Z M 178.632812 13.121094 " fill-opacity="1" fill-rule="nonzero"/><path fill="rgb(30.589294%, 32.548523%, 33.329773%)" d="M 164.179688 20.183594 C 167.535156 20.183594 170.113281 20.992188 171.910156 22.609375 C 173.710938 24.199219 174.609375 26.613281 174.609375 29.847656 L 174.609375 41.398438 C 174.609375 41.875 174.226562 42.257812 173.753906 42.257812 L 169.585938 42.257812 C 169.113281 42.257812 168.730469 41.875 168.730469 41.398438 L 168.730469 39.550781 C 167.550781 41.570312 165.347656 42.582031 162.128906 42.582031 C 160.464844 42.582031 159.015625 42.300781 157.777344 41.734375 C 156.570312 41.167969 155.644531 40.386719 155 39.386719 C 154.355469 38.390625 154.035156 37.257812 154.035156 35.992188 C 154.035156 33.972656 154.785156 32.378906 156.289062 31.222656 C 157.820312 30.0625 160.167969 29.484375 163.335938 29.484375 L 167.898438 29.484375 C 168.136719 29.484375 168.332031 29.289062 168.3125 29.054688 C 168.234375 27.886719 167.824219 26.980469 167.078125 26.328125 C 166.246094 25.574219 165 25.199219 163.335938 25.199219 C 162.179688 25.199219 161.039062 25.386719 159.914062 25.765625 C 159.191406 25.992188 158.539062 26.28125 157.953125 26.628906 C 157.488281 26.902344 156.863281 26.769531 156.617188 26.289062 L 155.179688 23.476562 C 154.984375 23.097656 155.097656 22.625 155.460938 22.402344 C 156.507812 21.761719 157.707031 21.253906 159.066406 20.871094 C 160.730469 20.414062 162.4375 20.183594 164.179688 20.183594 Z M 163.699219 38.335938 C 164.773438 38.335938 165.722656 38.09375 166.554688 37.609375 C 167.390625 37.097656 167.980469 36.355469 168.328125 35.386719 L 168.328125 34.023438 C 168.328125 33.546875 167.945312 33.164062 167.472656 33.164062 L 164.019531 33.164062 C 161.441406 33.164062 160.15625 34.011719 160.15625 35.710938 C 160.15625 36.519531 160.464844 37.164062 161.082031 37.648438 C 161.726562 38.109375 162.597656 38.335938 163.699219 38.335938 Z M 163.699219 38.335938 " fill-opacity="1" fill-rule="nonzero"/><path fill="rgb(30.589294%, 32.548523%, 33.329773%)" d="M 142.929688 42.582031 C 140.621094 42.582031 138.539062 42.109375 136.6875 41.167969 C 134.863281 40.195312 133.425781 38.863281 132.378906 37.164062 C 131.359375 35.464844 130.847656 33.539062 130.847656 31.382812 C 130.847656 29.226562 131.359375 27.300781 132.378906 25.601562 C 133.425781 23.902344 134.863281 22.582031 136.6875 21.640625 C 138.539062 20.667969 140.621094 20.183594 142.929688 20.183594 C 145.210938 20.183594 147.195312 20.667969 148.886719 21.640625 C 150.367188 22.453125 151.5 23.578125 152.28125 25.011719 C 152.496094 25.402344 152.328125 25.886719 151.933594 26.097656 L 148.496094 27.953125 C 148.089844 28.175781 147.582031 28.023438 147.308594 27.644531 C 146.214844 26.121094 144.742188 25.359375 142.886719 25.359375 C 141.25 25.359375 139.894531 25.898438 138.820312 26.976562 C 137.75 28.054688 137.210938 29.523438 137.210938 31.382812 C 137.210938 33.242188 137.75 34.710938 138.820312 35.789062 C 139.894531 36.867188 141.25 37.40625 142.886719 37.40625 C 144.757812 37.40625 146.230469 36.652344 147.308594 35.140625 C 147.582031 34.753906 148.09375 34.597656 148.507812 34.824219 L 151.933594 36.703125 C 152.328125 36.917969 152.492188 37.402344 152.273438 37.796875 C 151.488281 39.183594 150.363281 40.292969 148.886719 41.125 C 147.195312 42.097656 145.210938 42.582031 142.929688 42.582031 Z M 142.929688 42.582031 " fill-opacity="1" fill-rule="nonzero"/><path fill="rgb(30.589294%, 32.548523%, 33.329773%)" d="M 119.164062 42.582031 C 117.363281 42.582031 115.605469 42.367188 113.886719 41.933594 C 112.503906 41.566406 111.347656 41.128906 110.414062 40.617188 C 110.042969 40.414062 109.914062 39.949219 110.09375 39.5625 L 111.460938 36.601562 C 111.679688 36.128906 112.261719 35.960938 112.722656 36.199219 C 113.503906 36.605469 114.386719 36.953125 115.378906 37.246094 C 116.746094 37.621094 118.089844 37.8125 119.40625 37.8125 C 122.0625 37.8125 123.390625 37.152344 123.390625 35.832031 C 123.390625 35.210938 123.027344 34.765625 122.304688 34.496094 C 121.578125 34.226562 120.464844 33.996094 118.960938 33.808594 C 117.191406 33.539062 115.726562 33.230469 114.574219 32.878906 C 113.417969 32.527344 112.410156 31.910156 111.554688 31.019531 C 110.71875 30.128906 110.304688 28.863281 110.304688 27.21875 C 110.304688 25.84375 110.695312 24.632812 111.472656 23.582031 C 112.277344 22.503906 113.429688 21.667969 114.933594 21.074219 C 116.464844 20.480469 118.261719 20.183594 120.332031 20.183594 C 121.859375 20.183594 123.375 20.359375 124.878906 20.710938 C 126.078125 20.964844 127.113281 21.300781 127.980469 21.71875 C 128.378906 21.910156 128.523438 22.390625 128.335938 22.789062 L 126.964844 25.734375 C 126.75 26.1875 126.203125 26.359375 125.75 26.148438 C 124.074219 25.351562 122.265625 24.957031 120.332031 24.957031 C 118.988281 24.957031 117.980469 25.144531 117.3125 25.519531 C 116.640625 25.898438 116.304688 26.382812 116.304688 26.976562 C 116.304688 27.652344 116.667969 28.121094 117.390625 28.390625 C 118.117188 28.660156 119.269531 28.917969 120.855469 29.160156 C 122.625 29.457031 124.074219 29.78125 125.203125 30.128906 C 126.328125 30.453125 127.308594 31.058594 128.140625 31.949219 C 128.972656 32.839844 129.390625 34.078125 129.390625 35.667969 C 129.390625 37.015625 128.988281 38.214844 128.183594 39.265625 C 127.375 40.316406 126.195312 41.140625 124.640625 41.734375 C 123.109375 42.300781 121.28125 42.582031 119.164062 42.582031 Z M 119.164062 42.582031 " fill-opacity="1" fill-rule="nonzero"/><path fill="rgb(30.589294%, 32.548523%, 33.329773%)" d="M 108.5 31.464844 C 108.5 31.523438 108.476562 31.824219 108.4375 32.367188 C 108.40625 32.816406 108.03125 33.164062 107.585938 33.164062 L 92.523438 33.164062 C 92.25 33.164062 92.042969 33.417969 92.128906 33.679688 C 92.476562 34.785156 93.128906 35.675781 94.082031 36.355469 C 95.183594 37.136719 96.554688 37.527344 98.191406 37.527344 C 99.316406 37.527344 100.3125 37.367188 101.171875 37.042969 C 101.804688 36.792969 102.402344 36.445312 102.964844 36.003906 C 103.34375 35.707031 103.894531 35.71875 104.21875 36.074219 L 106.445312 38.496094 C 106.742188 38.820312 106.753906 39.320312 106.441406 39.625 C 104.425781 41.597656 101.621094 42.582031 98.03125 42.582031 C 95.585938 42.582031 93.425781 42.109375 91.546875 41.167969 C 89.667969 40.195312 88.21875 38.863281 87.199219 37.164062 C 86.179688 35.464844 85.667969 33.539062 85.667969 31.382812 C 85.667969 29.253906 86.164062 27.339844 87.160156 25.640625 C 88.179688 23.917969 89.5625 22.582031 91.304688 21.640625 C 93.078125 20.667969 95.050781 20.183594 97.222656 20.183594 C 99.34375 20.183594 101.265625 20.644531 102.980469 21.558594 C 104.699219 22.476562 106.042969 23.796875 107.007812 25.519531 C 108 27.21875 108.5 29.199219 108.5 31.464844 Z M 97.265625 24.957031 C 95.84375 24.957031 94.648438 25.359375 93.679688 26.167969 C 92.832031 26.878906 92.269531 27.820312 92.003906 28.992188 C 91.945312 29.246094 92.144531 29.484375 92.410156 29.484375 L 102.078125 29.484375 C 102.34375 29.484375 102.542969 29.246094 102.484375 28.988281 C 102.214844 27.84375 101.65625 26.917969 100.808594 26.207031 C 99.839844 25.371094 98.660156 24.957031 97.265625 24.957031 Z M 97.265625 24.957031 " fill-opacity="1" fill-rule="nonzero"/><g clip-path="url(#clip-1)"><path fill="rgb(30.589294%, 32.548523%, 33.329773%)" d="M 217.414062 23.378906 C 218.164062 22.328125 219.171875 21.53125 220.433594 20.992188 C 221.496094 20.546875 222.6875 20.289062 224.003906 20.210938 C 224.476562 20.179688 224.859375 20.570312 224.859375 21.042969 L 224.859375 25.078125 C 224.859375 25.578125 224.4375 25.96875 223.9375 25.941406 C 223.726562 25.929688 223.566406 25.925781 223.453125 25.925781 C 221.652344 25.925781 220.242188 26.4375 219.222656 27.460938 C 218.203125 28.460938 217.695312 29.96875 217.695312 31.988281 L 217.695312 41.398438 C 217.695312 41.875 217.3125 42.257812 216.835938 42.257812 L 212.269531 42.257812 C 211.796875 42.257812 211.414062 41.875 211.414062 41.398438 L 211.414062 21.367188 C 211.414062 20.894531 211.796875 20.507812 212.269531 20.507812 L 216.554688 20.507812 C 217.027344 20.507812 217.414062 20.894531 217.414062 21.367188 Z M 217.414062 23.378906 " fill-opacity="1" fill-rule="nonzero"/></g></svg>